<mxfile host="Electron" agent="Mozilla/5.0 (Macintosh; Intel Mac OS X 10_15_7) AppleWebKit/537.36 (KHTML, like Gecko) draw.io/24.7.8 Chrome/128.0.6613.36 Electron/32.0.1 Safari/537.36" version="24.7.8">
  <diagram name="PÃ¡gina-1" id="b5lrxmhmsCtSaoRtqajS">
    <mxGraphModel dx="1781" dy="631" grid="1" gridSize="10" guides="1" tooltips="1" connect="1" arrows="1" fold="1" page="1" pageScale="1" pageWidth="827" pageHeight="1169" math="0" shadow="0">
      <root>
        <mxCell id="0" />
        <mxCell id="1" parent="0" />
        <mxCell id="rfjBqbbtYbBhvfHCrF0Z-1" value="ARQUITECTURA DELTA DEL PROYECTO" style="text;html=1;align=center;verticalAlign=middle;whiteSpace=wrap;rounded=0;fontSize=21;fontStyle=1" parent="1" vertex="1">
          <mxGeometry y="10" width="810" height="30" as="geometry" />
        </mxCell>
        <mxCell id="rfjBqbbtYbBhvfHCrF0Z-2" value="" style="rounded=0;whiteSpace=wrap;html=1;" parent="1" vertex="1">
          <mxGeometry x="-160" y="120" width="140" height="440" as="geometry" />
        </mxCell>
        <mxCell id="rfjBqbbtYbBhvfHCrF0Z-4" value="Source" style="text;html=1;align=center;verticalAlign=middle;whiteSpace=wrap;rounded=0;fillColor=default;fontStyle=1;fontSize=16;" parent="1" vertex="1">
          <mxGeometry x="-130" y="100" width="60" height="30" as="geometry" />
        </mxCell>
        <mxCell id="rfjBqbbtYbBhvfHCrF0Z-5" value="Llamadas-tigo.csv" style="image;aspect=fixed;html=1;points=[];align=center;fontSize=12;image=img/lib/azure2/general/File.svg;" parent="1" vertex="1">
          <mxGeometry x="-118" y="200" width="56.00000000000001" height="69" as="geometry" />
        </mxCell>
        <mxCell id="rfjBqbbtYbBhvfHCrF0Z-6" value="Llamadas-tigo.xls" style="sketch=0;aspect=fixed;pointerEvents=1;shadow=0;dashed=0;html=1;strokeColor=none;labelPosition=center;verticalLabelPosition=bottom;verticalAlign=top;align=center;fillColor=#00188D;shape=mxgraph.azure.file" parent="1" vertex="1">
          <mxGeometry x="-130" y="340" width="56.4" height="60" as="geometry" />
        </mxCell>
        <mxCell id="rfjBqbbtYbBhvfHCrF0Z-7" style="edgeStyle=orthogonalEdgeStyle;rounded=0;orthogonalLoop=1;jettySize=auto;html=1;exitX=0.5;exitY=1;exitDx=0;exitDy=0;exitPerimeter=0;entryX=0.96;entryY=0.96;entryDx=0;entryDy=0;entryPerimeter=0;" parent="1" source="rfjBqbbtYbBhvfHCrF0Z-6" target="rfjBqbbtYbBhvfHCrF0Z-6" edge="1">
          <mxGeometry relative="1" as="geometry" />
        </mxCell>
        <mxCell id="rfjBqbbtYbBhvfHCrF0Z-8" value="" style="rounded=0;whiteSpace=wrap;html=1;fillColor=#e1d5e7;strokeColor=#9673a6;movable=0;resizable=0;rotatable=0;deletable=0;editable=0;locked=1;connectable=0;" parent="1" vertex="1">
          <mxGeometry x="175" y="90" width="725" height="510" as="geometry" />
        </mxCell>
        <mxCell id="rfjBqbbtYbBhvfHCrF0Z-9" value="Data Warehouse&amp;nbsp; Llamadas-tigo" style="text;html=1;align=center;verticalAlign=middle;whiteSpace=wrap;rounded=0;fillColor=default;fontSize=15;fontStyle=1;gradientColor=none;strokeColor=default;" parent="1" vertex="1">
          <mxGeometry x="380" y="76" width="290" height="31" as="geometry" />
        </mxCell>
        <mxCell id="rfjBqbbtYbBhvfHCrF0Z-10" value="" style="verticalLabelPosition=bottom;html=1;verticalAlign=top;align=center;strokeColor=none;fillColor=#660066;shape=mxgraph.azure.azure_subscription;" parent="1" vertex="1">
          <mxGeometry x="100" y="50" width="60" height="40" as="geometry" />
        </mxCell>
        <mxCell id="rfjBqbbtYbBhvfHCrF0Z-11" value="Bronze Layer" style="rounded=0;whiteSpace=wrap;html=1;fontSize=15;fontStyle=0;fillColor=#f8cecc;strokeColor=#b85450;" parent="1" vertex="1">
          <mxGeometry x="194" y="123" width="216" height="30" as="geometry" />
        </mxCell>
        <mxCell id="rfjBqbbtYbBhvfHCrF0Z-12" value="Silver Layer" style="rounded=0;whiteSpace=wrap;html=1;fontSize=15;fontStyle=0;fillColor=#f5f5f5;strokeColor=#666666;fontColor=#333333;" parent="1" vertex="1">
          <mxGeometry x="430" y="123" width="220" height="30" as="geometry" />
        </mxCell>
        <mxCell id="rfjBqbbtYbBhvfHCrF0Z-13" value="Gold Layer" style="rounded=0;whiteSpace=wrap;html=1;fontSize=15;fontStyle=0;fillColor=#fff2cc;strokeColor=#d6b656;" parent="1" vertex="1">
          <mxGeometry x="670" y="123" width="220" height="30" as="geometry" />
        </mxCell>
        <mxCell id="rfjBqbbtYbBhvfHCrF0Z-14" value="" style="rounded=0;whiteSpace=wrap;html=1;fillColor=#f8cecc;strokeColor=#b85450;movable=0;resizable=0;rotatable=0;deletable=0;editable=0;locked=1;connectable=0;" parent="1" vertex="1">
          <mxGeometry x="193" y="160" width="216" height="420" as="geometry" />
        </mxCell>
        <mxCell id="rfjBqbbtYbBhvfHCrF0Z-15" value="" style="rounded=0;whiteSpace=wrap;html=1;fillColor=#f5f5f5;strokeColor=#666666;fontColor=#333333;movable=0;resizable=0;rotatable=0;deletable=0;editable=0;locked=1;connectable=0;" parent="1" vertex="1">
          <mxGeometry x="432" y="160" width="216" height="420" as="geometry" />
        </mxCell>
        <mxCell id="rfjBqbbtYbBhvfHCrF0Z-16" value="" style="rounded=0;whiteSpace=wrap;html=1;fillColor=#fff2cc;strokeColor=#d6b656;movable=0;resizable=0;rotatable=0;deletable=0;editable=0;locked=1;connectable=0;" parent="1" vertex="1">
          <mxGeometry x="670" y="160" width="216" height="420" as="geometry" />
        </mxCell>
        <mxCell id="rfjBqbbtYbBhvfHCrF0Z-17" value="" style="shape=flexArrow;endArrow=classic;html=1;rounded=0;endWidth=52;endSize=10.17;fillColor=#e1d5e7;strokeColor=#9673a6;" parent="1" edge="1">
          <mxGeometry width="50" height="50" relative="1" as="geometry">
            <mxPoint x="-10" y="310" as="sourcePoint" />
            <mxPoint x="170" y="310" as="targetPoint" />
            <Array as="points">
              <mxPoint x="80" y="310" />
            </Array>
          </mxGeometry>
        </mxCell>
        <mxCell id="rfjBqbbtYbBhvfHCrF0Z-18" value="" style="image;aspect=fixed;html=1;points=[];align=center;fontSize=12;image=img/lib/azure2/databases/SQL_Database.svg;" parent="1" vertex="1">
          <mxGeometry x="270.88" y="260" width="38.25" height="51" as="geometry" />
        </mxCell>
        <mxCell id="rfjBqbbtYbBhvfHCrF0Z-19" value="Raw Data" style="text;html=1;align=center;verticalAlign=middle;whiteSpace=wrap;rounded=0;fontSize=14;" parent="1" vertex="1">
          <mxGeometry x="227.5" y="320" width="140" height="30" as="geometry" />
        </mxCell>
        <mxCell id="rfjBqbbtYbBhvfHCrF0Z-23" value="" style="endArrow=none;html=1;rounded=0;" parent="1" edge="1">
          <mxGeometry width="50" height="50" relative="1" as="geometry">
            <mxPoint x="207.5" y="350" as="sourcePoint" />
            <mxPoint x="387.5" y="350" as="targetPoint" />
          </mxGeometry>
        </mxCell>
        <mxCell id="rfjBqbbtYbBhvfHCrF0Z-24" value="&lt;b&gt;Tipo de Objetos:&lt;/b&gt; Tablas" style="text;html=1;align=center;verticalAlign=middle;whiteSpace=wrap;rounded=0;" parent="1" vertex="1">
          <mxGeometry x="202.5" y="355" width="190" height="30" as="geometry" />
        </mxCell>
        <mxCell id="rfjBqbbtYbBhvfHCrF0Z-25" value="&lt;b&gt;Tipos de Cargas:&lt;/b&gt;&lt;div&gt;&lt;ul&gt;&lt;li&gt;Batch&lt;/li&gt;&lt;li&gt;Full Load&lt;/li&gt;&lt;li&gt;Truncate - Insert&lt;/li&gt;&lt;/ul&gt;&lt;div&gt;&amp;nbsp;&lt;b&gt;No se realizan transformaciones&lt;/b&gt;&lt;/div&gt;&lt;/div&gt;&lt;div&gt;&lt;b&gt;&lt;br&gt;&lt;/b&gt;&lt;/div&gt;&lt;div&gt;&lt;b&gt;Modelo de datos: &lt;/b&gt;Ninguno se carga tal cual&amp;nbsp;&lt;/div&gt;&lt;div&gt;&lt;b&gt;&lt;br&gt;&lt;/b&gt;&lt;/div&gt;" style="text;html=1;align=left;verticalAlign=middle;whiteSpace=wrap;rounded=0;" parent="1" vertex="1">
          <mxGeometry x="202.5" y="440" width="200" height="110" as="geometry" />
        </mxCell>
        <mxCell id="rfjBqbbtYbBhvfHCrF0Z-27" value="" style="shape=flexArrow;endArrow=classic;html=1;rounded=0;entryX=0.364;entryY=0.014;entryDx=0;entryDy=0;entryPerimeter=0;width=6;endSize=6.01;" parent="1" edge="1">
          <mxGeometry width="50" height="50" relative="1" as="geometry">
            <mxPoint x="293" y="218" as="sourcePoint" />
            <mxPoint x="293.02" y="248.02661999999998" as="targetPoint" />
          </mxGeometry>
        </mxCell>
        <mxCell id="rfjBqbbtYbBhvfHCrF0Z-28" value="" style="image;aspect=fixed;html=1;points=[];align=center;fontSize=12;image=img/lib/azure2/databases/Data_Factory.svg;" parent="1" vertex="1">
          <mxGeometry x="270" y="170" width="40" height="40" as="geometry" />
        </mxCell>
        <mxCell id="rfjBqbbtYbBhvfHCrF0Z-29" value="" style="image;aspect=fixed;html=1;points=[];align=center;fontSize=12;image=img/lib/azure2/databases/SQL_Database.svg;" parent="1" vertex="1">
          <mxGeometry x="508.38" y="240" width="38.25" height="51" as="geometry" />
        </mxCell>
        <mxCell id="rfjBqbbtYbBhvfHCrF0Z-30" value="Limpieza de datos" style="text;html=1;align=center;verticalAlign=middle;whiteSpace=wrap;rounded=0;fontSize=14;" parent="1" vertex="1">
          <mxGeometry x="437.5" y="291" width="200" height="30" as="geometry" />
        </mxCell>
        <mxCell id="rfjBqbbtYbBhvfHCrF0Z-31" value="&lt;b&gt;Tipos de Cargas:&lt;/b&gt;&lt;div&gt;&lt;ul&gt;&lt;li&gt;Batch&lt;/li&gt;&lt;li&gt;Full Load&lt;/li&gt;&lt;li&gt;Truncate - Insert&lt;/li&gt;&lt;/ul&gt;&lt;div&gt;&amp;nbsp;&lt;b&gt;transformaciones:&lt;/b&gt;&lt;/div&gt;&lt;/div&gt;&lt;div&gt;&lt;ul&gt;&lt;li&gt;Limpiar Datos&lt;/li&gt;&lt;li&gt;Estandarizar Datos&lt;/li&gt;&lt;li&gt;Normalizar Datos&lt;/li&gt;&lt;li&gt;Dividir Columnas&lt;/li&gt;&lt;li&gt;Enriquecer datos&lt;/li&gt;&lt;/ul&gt;&lt;/div&gt;&lt;div&gt;&lt;b&gt;Modelo de datos: &lt;/b&gt;Ninguno se carga tal cual&amp;nbsp;&lt;/div&gt;&lt;div&gt;&lt;b&gt;&lt;br&gt;&lt;/b&gt;&lt;/div&gt;" style="text;html=1;align=left;verticalAlign=middle;whiteSpace=wrap;rounded=0;" parent="1" vertex="1">
          <mxGeometry x="437.5" y="410" width="200" height="110" as="geometry" />
        </mxCell>
        <mxCell id="rfjBqbbtYbBhvfHCrF0Z-32" value="" style="shape=flexArrow;endArrow=classic;html=1;rounded=0;entryX=0.364;entryY=0.014;entryDx=0;entryDy=0;entryPerimeter=0;width=6;endSize=6.01;" parent="1" edge="1">
          <mxGeometry width="50" height="50" relative="1" as="geometry">
            <mxPoint x="527" y="210" as="sourcePoint" />
            <mxPoint x="527.02" y="240.02661999999998" as="targetPoint" />
          </mxGeometry>
        </mxCell>
        <mxCell id="rfjBqbbtYbBhvfHCrF0Z-33" value="" style="image;aspect=fixed;html=1;points=[];align=center;fontSize=12;image=img/lib/azure2/databases/Data_Factory.svg;" parent="1" vertex="1">
          <mxGeometry x="507.5" y="170" width="40" height="40" as="geometry" />
        </mxCell>
        <mxCell id="rfjBqbbtYbBhvfHCrF0Z-34" value="" style="endArrow=none;html=1;rounded=0;" parent="1" edge="1">
          <mxGeometry width="50" height="50" relative="1" as="geometry">
            <mxPoint x="450" y="317" as="sourcePoint" />
            <mxPoint x="630" y="317" as="targetPoint" />
          </mxGeometry>
        </mxCell>
        <mxCell id="rfjBqbbtYbBhvfHCrF0Z-35" value="&lt;b&gt;Tipo de Objetos:&lt;/b&gt; Tablas" style="text;html=1;align=center;verticalAlign=middle;whiteSpace=wrap;rounded=0;" parent="1" vertex="1">
          <mxGeometry x="418" y="313" width="190" height="30" as="geometry" />
        </mxCell>
        <mxCell id="rfjBqbbtYbBhvfHCrF0Z-38" value="" style="image;aspect=fixed;html=1;points=[];align=center;fontSize=12;image=img/lib/azure2/databases/SQL_Database.svg;" parent="1" vertex="1">
          <mxGeometry x="758.88" y="239" width="38.25" height="51" as="geometry" />
        </mxCell>
        <mxCell id="rfjBqbbtYbBhvfHCrF0Z-39" value="" style="shape=flexArrow;endArrow=classic;html=1;rounded=0;entryX=0.364;entryY=0.014;entryDx=0;entryDy=0;entryPerimeter=0;width=6;endSize=6.01;" parent="1" edge="1">
          <mxGeometry width="50" height="50" relative="1" as="geometry">
            <mxPoint x="777.5" y="209" as="sourcePoint" />
            <mxPoint x="777.52" y="239.02661999999998" as="targetPoint" />
          </mxGeometry>
        </mxCell>
        <mxCell id="rfjBqbbtYbBhvfHCrF0Z-40" value="" style="image;aspect=fixed;html=1;points=[];align=center;fontSize=12;image=img/lib/azure2/databases/Data_Factory.svg;" parent="1" vertex="1">
          <mxGeometry x="758" y="169" width="40" height="40" as="geometry" />
        </mxCell>
        <mxCell id="rfjBqbbtYbBhvfHCrF0Z-41" value="&lt;b&gt;Tipos de Cargas:&lt;/b&gt;&lt;div&gt;&lt;ul&gt;&lt;li&gt;Batch,Full Load, Truncate - Insert&lt;/li&gt;&lt;li&gt;(Vistas) - No Cargar datos&lt;/li&gt;&lt;/ul&gt;&lt;div&gt;&amp;nbsp;&lt;b&gt;transformaciones:&lt;/b&gt;&lt;/div&gt;&lt;/div&gt;&lt;div&gt;&lt;ul&gt;&lt;li&gt;IntegraciÃ³n de Datos&lt;/li&gt;&lt;li&gt;Campos Agregados&lt;/li&gt;&lt;li&gt;Logica del Negocio&lt;/li&gt;&lt;/ul&gt;&lt;/div&gt;&lt;div&gt;&lt;b&gt;Modelo de datos:&amp;nbsp;&lt;/b&gt;&lt;/div&gt;&lt;div&gt;&lt;ul&gt;&lt;li&gt;Modelo Estrella&lt;/li&gt;&lt;li&gt;Modelo Copo de Nieve&lt;/li&gt;&lt;li&gt;Aggregated table&lt;/li&gt;&lt;/ul&gt;&lt;/div&gt;&lt;div&gt;&lt;b&gt;&lt;br&gt;&lt;/b&gt;&lt;/div&gt;" style="text;html=1;align=left;verticalAlign=middle;whiteSpace=wrap;rounded=0;" parent="1" vertex="1">
          <mxGeometry x="678" y="420" width="200" height="110" as="geometry" />
        </mxCell>
        <mxCell id="rfjBqbbtYbBhvfHCrF0Z-42" value="&lt;b&gt;Tipo de Objetos:&lt;/b&gt; Tablas o Vistas" style="text;html=1;align=center;verticalAlign=middle;whiteSpace=wrap;rounded=0;" parent="1" vertex="1">
          <mxGeometry x="683" y="318" width="190" height="30" as="geometry" />
        </mxCell>
        <mxCell id="rfjBqbbtYbBhvfHCrF0Z-43" value="Datos listos para AnÃ¡lisis" style="text;html=1;align=center;verticalAlign=middle;whiteSpace=wrap;rounded=0;fontSize=14;" parent="1" vertex="1">
          <mxGeometry x="678" y="290" width="200" height="30" as="geometry" />
        </mxCell>
        <mxCell id="rfjBqbbtYbBhvfHCrF0Z-44" value="" style="endArrow=none;html=1;rounded=0;" parent="1" edge="1">
          <mxGeometry width="50" height="50" relative="1" as="geometry">
            <mxPoint x="688" y="321" as="sourcePoint" />
            <mxPoint x="868" y="321" as="targetPoint" />
          </mxGeometry>
        </mxCell>
        <mxCell id="rfjBqbbtYbBhvfHCrF0Z-45" value="" style="shape=flexArrow;endArrow=classic;html=1;rounded=0;fillColor=#fff2cc;strokeColor=#d6b656;" parent="1" edge="1">
          <mxGeometry width="50" height="50" relative="1" as="geometry">
            <mxPoint x="920" y="313" as="sourcePoint" />
            <mxPoint x="1000" y="313" as="targetPoint" />
          </mxGeometry>
        </mxCell>
        <mxCell id="rfjBqbbtYbBhvfHCrF0Z-46" value="" style="rounded=0;whiteSpace=wrap;html=1;" parent="1" vertex="1">
          <mxGeometry x="1010" y="90" width="220" height="510" as="geometry" />
        </mxCell>
        <mxCell id="rfjBqbbtYbBhvfHCrF0Z-48" value="Tableau" style="verticalLabelPosition=bottom;sketch=0;aspect=fixed;html=1;verticalAlign=top;strokeColor=none;align=center;outlineConnect=0;shape=mxgraph.citrix.reporting;" parent="1" vertex="1">
          <mxGeometry x="1079.89" y="120" width="80.22" height="90" as="geometry" />
        </mxCell>
        <mxCell id="rfjBqbbtYbBhvfHCrF0Z-49" value="Machine Learning" style="shadow=0;dashed=0;html=1;strokeColor=none;fillColor=#EF8F21;labelPosition=center;verticalLabelPosition=bottom;verticalAlign=top;align=center;outlineConnect=0;shape=mxgraph.veeam.reporting;" parent="1" vertex="1">
          <mxGeometry x="1070" y="269" width="100" height="86" as="geometry" />
        </mxCell>
        <mxCell id="rfjBqbbtYbBhvfHCrF0Z-50" value="Consultas Avanzadas" style="sketch=0;html=1;aspect=fixed;strokeColor=none;shadow=0;fillColor=#3B8DF1;verticalAlign=top;labelPosition=center;verticalLabelPosition=bottom;shape=mxgraph.gcp2.big_query" parent="1" vertex="1">
          <mxGeometry x="1071" y="430" width="99" height="100" as="geometry" />
        </mxCell>
      </root>
    </mxGraphModel>
  </diagram>
</mxfile>
